# xmcd
#
# Track frame offsets: 
#        150
#        19368
#        40157
#        53564
#        71892
#        91782
#        105569
#        124940
#        144518
#        159260
#
# Disc length: 2323 seconds
#
# Revision: 1
# Processed by: cddbd v1.5.2PL0 Copyright (c) Steve Scherf et al.
# Submitted via: ExactAudioCopyFreeDBPlugin 1.0
#
DISCID=8009110a
DTITLE=Joe T. Cook and the Longshots - Rise Above It
DYEAR=2005
DGENRE=Blues
TTITLE0=Chill Down Easy
TTITLE1=Rise Above It
TTITLE2=We'll Get Over Someday
TTITLE3=Grocery Money
TTITLE4=Reflection Blues
TTITLE5=Start All Over
TTITLE6=Secret Life
TTITLE7=Hell's Kitchen
TTITLE8=I'm Coming Home
TTITLE9=Gravy Train
EXTD=John Franken, producer and featured guitarist\n
EXTT0=
EXTT1=
EXTT2=
EXTT3=
EXTT4=
EXTT5=
EXTT6=
EXTT7=
EXTT8=
EXTT9=
PLAYORDER=
